<svg xmlns="http://www.w3.org/2000/svg" viewBox="0 0 48 48" fill="none">
  <!-- Speech bubble (rounded square + tail) in brand royal blue -->
  <path fill="#2680EB" d="M11 4h26a7 7 0 0 1 7 7v19a7 7 0 0 1-7 7H22l-8.5 7.2A1 1 0 0 1 12 43.4V37h-1a7 7 0 0 1-7-7V11a7 7 0 0 1 7-7Z"/>
  <!-- Ascending bar chart -->
  <rect x="13.5" y="24" width="5" height="9.5" rx="1.3" fill="#fff"/>
  <rect x="21.5" y="18" width="5" height="15.5" rx="1.3" fill="#fff"/>
  <rect x="29.5" y="11.5" width="5" height="22" rx="1.3" fill="#fff"/>
  <!-- Growth arrow sweeping up-right (navy) -->
  <path stroke="#0F1E3D" stroke-width="3.2" stroke-linecap="round" stroke-linejoin="round" d="M12.5 31.5 23 22.5l6 4.5L40 15.5"/>
  <path fill="#0F1E3D" d="M41.6 14.2l-8.4-1.1a1 1 0 0 0-1 1.4l3.3 7.8a1 1 0 0 0 1.8.1l5.1-8.6a1 1 0 0 0-.8-1.6Z"/>
</svg>
